<svg width="60" height="96" viewBox="0 0 60 96" fill="none" xmlns="http://www.w3.org/2000/svg">
<path d="M15.1219 2.1535C15.4974 0.876753 16.6692 0 18 0H42C42.9643 0 43.8699 0.463564 44.4337 1.24587C44.9976 2.02817 45.151 3.03384 44.846 3.94868L34.1623 36H57C58.1458 36 59.1915 36.6527 59.6949 37.6819C60.1983 38.7112 60.0715 39.9374 59.368 40.8418L17.3681 94.8418C16.4789 95.985 14.9 96.3298 13.6153 95.6613C12.3305 94.9928 11.7067 93.502 12.1327 92.1177L22.9381 57H2.99999C2.05453 57 1.16439 56.5543 0.597965 55.7973C0.0315406 55.0403 -0.14488 54.0605 0.121898 53.1535L15.1219 2.1535Z" fill="#45A5FF"/>
</svg>
