<svg width="84" height="84" viewBox="0 0 84 84" fill="none" xmlns="http://www.w3.org/2000/svg">
<path d="M0 60C0 56.6863 2.68629 54 6 54H18C21.3137 54 24 56.6863 24 60V78C24 81.3137 21.3137 84 18 84H6C2.68629 84 0 81.3137 0 78V60Z" fill="#45A5FF"/>
<path d="M30 36C30 32.6863 32.6863 30 36 30H48C51.3137 30 54 32.6863 54 36V78C54 81.3137 51.3137 84 48 84H36C32.6863 84 30 81.3137 30 78V36Z" fill="#45A5FF"/>
<path d="M60 6C60 2.68629 62.6863 0 66 0H78C81.3137 0 84 2.68629 84 6V78C84 81.3137 81.3137 84 78 84H66C62.6863 84 60 81.3137 60 78V6Z" fill="#45A5FF"/>
</svg>
