<svg width="90" height="96" viewBox="0 0 90 96" fill="none" xmlns="http://www.w3.org/2000/svg">
<path d="M90 51.0461C90 75.8735 69.8528 96 45 96C20.1472 96 0 75.8735 0 51.0461C0 30.2867 14.0859 12.8139 33.2306 7.64536C33.0804 7.12073 32.9999 6.56667 32.9999 5.99385C32.9999 2.68354 35.6862 0 38.9999 0H50.9999C54.3136 0 56.9999 2.68354 56.9999 5.99385C56.9999 6.56666 56.9195 7.12071 56.7693 7.64533C75.9141 12.8138 90 30.2867 90 51.0461ZM68.3348 27.6371L38.6363 44.5902L21.6658 74.2583L51.3643 57.3051L68.3348 27.6371Z" fill="#45A5FF"/>
</svg>
