<svg width="96" height="96" viewBox="0 0 96 96" fill="none" xmlns="http://www.w3.org/2000/svg">
<path d="M27.9199 3.35792C35.3649 1.59206 43.2721 0 48 0C52.728 0 60.6351 1.59206 68.0801 3.35791C75.6921 5.1634 83.3612 7.28765 87.8724 8.5757C91.6371 9.65061 94.4847 12.5615 95.0316 16.1526C99.1227 43.0165 89.6363 62.9212 78.1303 76.0919C72.3989 82.6525 66.1698 87.5422 60.8702 90.8122C58.2224 92.4461 55.7683 93.6992 53.6843 94.5576C51.7587 95.3508 49.6986 96 48 96C46.3015 96 44.2413 95.3508 42.3157 94.5576C40.2317 93.6992 37.7776 92.4461 35.1298 90.8122C29.8302 87.5422 23.6011 82.6525 17.8697 76.0919C6.36371 62.9212 -3.12269 43.0165 0.968445 16.1526C1.51533 12.5615 4.36288 9.65062 8.12762 8.5757C12.6388 7.28765 20.3079 5.1634 27.9199 3.35792Z" fill="#45A5FF"/>
</svg>
