<svg width="550" height="185" viewBox="0 0 550 185" fill="none" xmlns="http://www.w3.org/2000/svg">
<g clip-path="url(#clip0_44_36)">
<path d="M99.8201 69.99L97.3901 69.17L99.6401 67.95C108.72 63.05 113.72 55.14 113.72 45.67C113.72 29.15 100.95 18.04 81.9401 18.04H36.0901V81.41C36.0901 107.75 51.5001 125.45 74.4401 125.45H82.5401C105.08 125.45 119.65 113.38 119.65 94.71C119.65 83.08 112.61 74.29 99.8201 69.98V69.99ZM54.7601 33.15H77.0601C87.3101 33.15 94.4701 39.21 94.4701 47.89C94.4701 56.57 87.4101 62.78 76.9101 62.78H54.7601V33.14V33.15ZM99.9601 97.97C98.1401 105.6 90.9501 110.35 81.2101 110.35H77.7001C65.0501 110.35 54.7601 100.06 54.7601 87.41V77.75H81.5001C82.4001 77.75 83.3001 77.8 84.1801 77.88C94.0301 78.86 100.4 85.24 100.4 94.12C100.4 95.45 100.25 96.75 99.9601 97.97Z" fill="#002A72"/>
<path d="M197.22 81.2498C209.69 75.8898 216.84 65.0798 216.84 51.5998C216.84 31.5298 201.87 18.0498 179.58 18.0498H134.76V125.46H153.42V85.1598H177.53L197.13 116.71C200.53 122.19 206.41 125.46 212.86 125.46H224.48L195.99 81.7698L197.21 81.2498H197.22ZM175.73 70.0498H153.43V33.1598H177.22C189.41 33.1598 197.59 40.5698 197.59 51.5998C197.59 62.6298 188.81 70.0498 175.73 70.0498Z" fill="#002A72"/>
<path d="M417.31 18.05L382.64 102.47L352.23 29.53C349.37 22.55 342.64 18.04 335.1 18.04H327.73L373.59 125.45H391.53L437.25 18.04H417.31V18.05Z" fill="#002A72"/>
<path d="M279.02 18.0498L233.15 125.46H253.09L262.47 102.49H313.54L318.18 113.94C321.04 120.94 327.77 125.46 335.33 125.46H342.82L296.95 18.0498H279.01H279.02ZM268.66 87.3898L288.07 39.9198L307.47 87.3898H268.67H268.66Z" fill="#002A72"/>
<path d="M486.08 18.0498H468.14L422.27 125.46H442.2L451.58 102.49H502.65L504.64 107.43L507.29 113.94C510.15 120.94 516.88 125.46 524.44 125.46H531.93L486.06 18.0498H486.08ZM457.77 87.3898L477.18 39.9198L496.56 87.3898H457.77Z" fill="#002A72"/>
<path d="M37.54 159.67C37.54 150.37 43.56 144.14 52.58 144.14C57.54 144.14 61.06 146.11 63.81 149.1L62.5 150.45C60.21 147.87 57.01 145.9 52.71 145.9C44.92 145.9 39.76 151.39 39.76 159.63C39.76 167.87 44.88 173.52 52.54 173.52C57.21 173.52 60.9 171.27 63.19 168.07L64.62 169.42C62 172.94 57.78 175.28 52.53 175.28C43.56 175.28 37.53 169.05 37.53 159.67H37.54Z" fill="#002A72"/>
<path d="M84.29 159.71C84.29 150.37 90.23 144.14 99.16 144.14C108.09 144.14 113.99 150.37 113.99 159.71C113.99 169.05 108.05 175.28 99.16 175.28C90.27 175.28 84.29 169.05 84.29 159.71ZM111.78 159.71C111.78 151.43 106.74 145.9 99.16 145.9C91.58 145.9 86.5 151.43 86.5 159.71C86.5 167.99 91.58 173.52 99.16 173.52C106.74 173.52 111.78 167.99 111.78 159.71Z" fill="#002A72"/>
<path d="M167.34 174.87L165.91 148.36L153.54 174.87H152.11L139.74 148.36L138.35 174.87H136.22L137.98 144.22H140.07L152.85 171.63L165.63 144.22H167.72L169.44 174.87H167.35H167.34Z" fill="#002A72"/>
<path d="M193.32 164.3V144.55H195.41V164.22C195.41 169.79 199.43 173.52 205.45 173.52C211.47 173.52 215.49 169.79 215.49 164.22V144.55H217.62V164.3C217.62 170.9 212.74 175.28 205.45 175.28C198.16 175.28 193.32 170.9 193.32 164.3Z" fill="#002A72"/>
<path d="M242.28 144.55H243.67L265.47 171.14V144.55H267.56V174.87H266.17L244.37 148.28L244.41 174.87H242.28V144.55Z" fill="#002A72"/>
<path d="M292.63 144.55H294.76V174.87H292.63V144.55Z" fill="#002A72"/>
<path d="M317.79 159.67C317.79 150.37 323.81 144.14 332.83 144.14C337.79 144.14 341.31 146.11 344.06 149.1L342.75 150.45C340.46 147.87 337.26 145.9 332.96 145.9C325.17 145.9 320.01 151.39 320.01 159.63C320.01 167.87 325.13 173.52 332.79 173.52C337.46 173.52 341.15 171.27 343.44 168.07L344.87 169.42C342.25 172.94 338.03 175.28 332.78 175.28C323.81 175.28 317.78 169.05 317.78 159.67H317.79Z" fill="#002A72"/>
<path d="M385.8 166.22H369L365.19 174.87H362.94L376.38 144.55H378.39L391.83 174.87H389.58L385.81 166.22H385.8ZM385.02 164.46L377.4 147.05L369.74 164.46H385.02Z" fill="#002A72"/>
<path d="M425.83 175.28L424.19 177.78C424.52 177.74 424.89 177.7 425.21 177.7C427.83 177.7 429.51 179.01 429.51 180.9C429.51 182.95 427.67 184.3 424.76 184.3C423.12 184.3 421.73 183.85 420.95 183.07L421.44 182.05C422.14 182.79 423.24 183.12 424.59 183.12C426.6 183.12 427.87 182.22 427.87 180.91C427.87 179.6 426.6 178.82 424.67 178.82C423.97 178.82 423.28 178.94 422.66 179.19L422.29 178.49L424.34 175.29C415.74 174.96 410 168.82 410 159.68C410 150.54 416.02 144.15 425.04 144.15C430 144.15 433.52 146.12 436.27 149.11L434.96 150.46C432.67 147.88 429.47 145.91 425.17 145.91C417.38 145.91 412.22 151.4 412.22 159.64C412.22 167.88 417.34 173.53 425 173.53C429.67 173.53 433.36 171.28 435.65 168.08L437.08 169.43C434.58 172.79 430.69 175.04 425.81 175.29L425.83 175.28Z" fill="#002A72"/>
<path d="M478.03 166.22H461.23L457.42 174.87H455.17L468.61 144.55H470.62L484.06 174.87H481.81L478.04 166.22H478.03ZM477.25 164.46L469.63 147.05L461.97 164.46H477.25ZM463.85 139.83H462.5C462.5 137.17 464.14 135.4 466.31 135.4C469.18 135.4 470.53 138.56 472.91 138.56C474.22 138.56 475.33 137.49 475.33 135.81H476.68C476.68 138.51 475.04 140.23 472.87 140.23C470.04 140.23 468.65 137.03 466.27 137.03C464.96 137.03 463.85 138.14 463.85 139.82V139.83Z" fill="#002A72"/>
<path d="M502.24 159.71C502.24 150.37 508.18 144.14 517.11 144.14C526.04 144.14 531.94 150.37 531.94 159.71C531.94 169.05 526 175.28 517.11 175.28C508.22 175.28 502.24 169.05 502.24 159.71ZM529.73 159.71C529.73 151.43 524.69 145.9 517.11 145.9C509.53 145.9 504.45 151.43 504.45 159.71C504.45 167.99 509.53 173.52 517.11 173.52C524.69 173.52 529.73 167.99 529.73 159.71Z" fill="#002A72"/>
<path d="M40.7799 118.45C32.6099 109.06 28.2899 96.2602 28.2899 81.4202V40.9802C28.2899 36.6602 24.7899 33.1602 20.4699 33.1602H15.6399V81.4202C15.6399 89.0702 16.6199 96.3002 18.5399 103C22.3599 116.35 34.6899 125.47 48.5699 125.47C45.7199 123.48 43.1199 121.14 40.7899 118.46L40.7799 118.45Z" fill="#45A5FF"/>
<path d="M7.82 81.42V53.06C7.82 50.39 5.66 48.23 2.99 48.23H0V78.05C0 82.78 0.6 87.25 1.79 91.39C3.15 96.15 6.26 100.04 10.3 102.47C8.66 95.85 7.82 88.8 7.82 81.42Z" fill="#45A5FF"/>
</g>
<defs>
<clipPath id="clip0_44_36">
<rect width="550" height="184.29" fill="white"/>
</clipPath>
</defs>
</svg>
